<svg width="256" height="256" viewBox="0 0 256 256" fill="none" xmlns="http://www.w3.org/2000/svg">
<rect width="256" height="256" fill="white"/>
<circle cx="128" cy="128" r="128" fill="black"/>
<path d="M176.982 69.5859V151.019C176.982 160.248 175.017 168.251 171.086 175.03C167.156 181.752 161.516 186.879 154.167 190.411C146.819 193.943 138.132 195.709 128.105 195.709C112.952 195.709 101.018 191.778 92.3022 183.917C83.5864 176.056 79.1431 165.289 78.9722 151.617V69.5859H109.136V152.215C109.478 165.83 115.801 172.638 128.105 172.638C134.315 172.638 139.014 170.929 142.205 167.511C145.395 164.093 146.99 158.539 146.99 150.848V69.5859H176.982Z" fill="white"/>
</svg>
